<svg t="1660042266734" class="icon" viewBox="0 0 1024 1024" version="1.1" xmlns="http://www.w3.org/2000/svg" p-id="2945" width="200" height="200"><path d="M58.176 360.746667v314.154666c0 95.189333 77.994667 176.490667 174.549333 186.197334a3316.906667 3316.906667 0 0 0 558.549334 0c96.554667-9.706667 174.549333-91.008 174.549333-186.197334V360.746667c0-95.189333-77.994667-176.469333-174.549333-186.176a3316.906667 3316.906667 0 0 0-558.549334 0c-96.554667 9.706667-174.549333 90.986667-174.549333 186.176" fill="#A86F8D" p-id="2946"></path><path d="M418.901333 640V407.253333c0-37.333333 37.482667-58.176 69.824-34.88l174.549334 116.352c29.824 15.381333 29.824 54.421333 0 69.824l-174.549334 116.352c-32.341333 23.317333-69.824 2.453333-69.824-34.901333" fill="#E7A1C2" p-id="2947"></path></svg>
